/* XPM */
static char * D:\1euro\images\XAGz\bitcoin32_xpm[] = {
"32 32 217 2",
"  	c None",
". 	c #474747",
"+ 	c #484848",
"@ 	c #404040",
"# 	c #424242",
"$ 	c #454545",
"% 	c #4A4A4A",
"& 	c #535353",
"* 	c #434343",
"= 	c #414141",
"- 	c #505050",
"; 	c #878787",
"> 	c #A6A6A6",
", 	c #C3C3C3",
"' 	c #D9D9D9",
") 	c #DADADA",
"! 	c #D8D8D8",
"~ 	c #C1C1C1",
"{ 	c #828282",
"] 	c #3E3E3E",
"^ 	c #3C3C3C",
"/ 	c #545454",
"( 	c #969696",
"_ 	c #CFCFCF",
": 	c #E2E2E2",
"< 	c #EAEAEA",
"[ 	c #F1F1F1",
"} 	c #F6F6F6",
"| 	c #F5F5F5",
"1 	c #F0F0F0",
"2 	c #E9E9E9",
"3 	c #E0E0E0",
"4 	c #CBCBCB",
"5 	c #949494",
"6 	c #4B4B4B",
"7 	c #3D3D3D",
"8 	c #757575",
"9 	c #C6C6C6",
"0 	c #DBDBDB",
"a 	c #FEFEFE",
"b 	c #E1E1E1",
"c 	c #B9B9B9",
"d 	c #BDBDBD",
"e 	c #B7B7B7",
"f 	c #BEBEBE",
"g 	c #E3E3E3",
"h 	c #FCFCFC",
"i 	c #E7E7E7",
"j 	c #6D6D6D",
"k 	c #858585",
"l 	c #E4E4E4",
"m 	c #C5C5C5",
"n 	c #B2B2B2",
"o 	c #CCCCCC",
"p 	c #EFEFEF",
"q 	c #E6E6E6",
"r 	c #E8E8E8",
"s 	c #D0D0D0",
"t 	c #B6B6B6",
"u 	c #FBFBFB",
"v 	c #D4D4D4",
"w 	c #7E7E7E",
"x 	c #F4F4F4",
"y 	c #ABABAB",
"z 	c #E5E5E5",
"A 	c #D6D6D6",
"B 	c #7F7F7F",
"C 	c #747474",
"D 	c #B1B1B1",
"E 	c #ECECEC",
"F 	c #DFDFDF",
"G 	c #DCDCDC",
"H 	c #B4B4B4",
"I 	c #9A9A9A",
"J 	c #898989",
"K 	c #CACACA",
"L 	c #AFAFAF",
"M 	c #D3D3D3",
"N 	c #6A6A6A",
"O 	c #3F3F3F",
"P 	c #555555",
"Q 	c #C4C4C4",
"R 	c #B0B0B0",
"S 	c #B3B3B3",
"T 	c #686868",
"U 	c #CDCDCD",
"V 	c #7A7A7A",
"W 	c #F7F7F7",
"X 	c #DEDEDE",
"Y 	c #BFBFBF",
"Z 	c #464646",
"` 	c #4F4F4F",
" .	c #959595",
"..	c #727272",
"+.	c #C2C2C2",
"@.	c #A7A7A7",
"#.	c #BCBCBC",
"$.	c #ADADAD",
"%.	c #F3F3F3",
"&.	c #F2F2F2",
"*.	c #D5D5D5",
"=.	c #8F8F8F",
"-.	c #525252",
";.	c #C7C7C7",
">.	c #EBEBEB",
",.	c #EDEDED",
"'.	c #EEEEEE",
").	c #BABABA",
"!.	c #A8A8A8",
"~.	c #D2D2D2",
"{.	c #FDFDFD",
"].	c #D1D1D1",
"^.	c #BBBBBB",
"/.	c #777777",
"(.	c #444444",
"_.	c #A4A4A4",
":.	c #A9A9A9",
"<.	c #9E9E9E",
"[.	c #C9C9C9",
"}.	c #B5B5B5",
"|.	c #4D4D4D",
"1.	c #BDB6B6",
"2.	c #DBD8D8",
"3.	c #ACA3A3",
"4.	c #C6C0C0",
"5.	c #D6D2D2",
"6.	c #A39999",
"7.	c #DFDCDC",
"8.	c #D6D3D3",
"9.	c #9D9292",
"0.	c #9C9191",
"a.	c #E7E5E5",
"b.	c #F8F8F8",
"c.	c #C0C0C0",
"d.	c #C0B9B9",
"e.	c #A19797",
"f.	c #D7D4D4",
"g.	c #E8E7E7",
"h.	c #B3ABAB",
"i.	c #A09696",
"j.	c #E0DEDE",
"k.	c #BBB4B4",
"l.	c #B9B2B2",
"m.	c #9D9393",
"n.	c #C9C3C3",
"o.	c #D4D0D0",
"p.	c #C7C2C2",
"q.	c #C1BBBB",
"r.	c #ABA2A2",
"s.	c #CFCBCB",
"t.	c #DFDDDD",
"u.	c #A49A9A",
"v.	c #988C8C",
"w.	c #AAA1A1",
"x.	c #BDB7B7",
"y.	c #C8C2C2",
"z.	c #3B3B3B",
"A.	c #C3BDBD",
"B.	c #E2DFDF",
"C.	c #D1CDCD",
"D.	c #C4BEBE",
"E.	c #998C8C",
"F.	c #9F9595",
"G.	c #A79D9D",
"H.	c #DDDCDC",
"I.	c #998D8D",
"J.	c #A59B9B",
"K.	c #BBB5B5",
"L.	c #A3A3A3",
"M.	c #D0CBCB",
"N.	c #E5E3E3",
"O.	c #B2AAAA",
"P.	c #CAC4C4",
"Q.	c #C8C3C3",
"R.	c #E2E0E0",
"S.	c #CBC7C7",
"T.	c #E1DFDF",
"U.	c #ACA2A2",
"V.	c #C2BCBC",
"W.	c #B6AEAE",
"X.	c #AFA8A8",
"Y.	c #9B9B9B",
"Z.	c #808080",
"`.	c #D7D7D7",
" +	c #FAFAFA",
".+	c #707070",
"++	c #C8C8C8",
"@+	c #9E9494",
"#+	c #A39898",
"$+	c #909090",
"%+	c #F9F9F9",
"&+	c #DCD9D9",
"*+	c #968B8B",
"=+	c #888888",
"-+	c #494949",
";+	c #ADA4A4",
">+	c #CEC8C8",
",+	c #B2ABAB",
"'+	c #BFB9B9",
")+	c #6B6B6B",
"!+	c #EAE9E9",
"~+	c #A29898",
"{+	c #AFA7A7",
"]+	c #978B8B",
"^+	c #AAA0A0",
"/+	c #B1A8A8",
"(+	c #5C5C5C",
"_+	c #7C7C7C",
":+	c #DDDDDD",
"<+	c #E1E0E0",
"[+	c #E4E3E3",
"}+	c #7B7B7B",
"|+	c #CECECE",
"1+	c #717171",
"2+	c #8D8D8D",
"3+	c #868686",
"4+	c #393939",
"                              . +                               ",
"                      @ # $ % & & + * = @                       ",
"                = = - ; > , ' ) ) ! ~ > { % ] %                 ",
"              ^ / ( _ ) : < [ } | 1 2 3 ' 4 5 6 7               ",
"            = 8 9 0 < a b c d e c f c g h i ! , j ^             ",
"          * k ! l a m n o p q q q r } s t o u b v w ^           ",
"        # k ) < x > r l i 2 r q q q q : l : y | z A B ^         ",
"      ^ C ! 2 r D E F : i G H I ' J K q z g E L E l M N O       ",
"    = P Q l | R z : : g g S T U r k V r E E 2 2 n W X Y Z `     ",
"    #  .) a > i z i q l b ..+.@.#.d ; $.p %.&.< E n W *.=.]     ",
"    -.U 2 ;.3 : >.,.p [ '.>.r ).!.F q p ,.,.1 '.r b ~.: m *     ",
"  @ k ' {.R z z < '.p >.< r ).R ].!.) < '.E '.1 &.r ^.W *./.#   ",
"  (._.3 z 4 g q q r : F : e $.E E ].:.3 1 ,.&.| | '.U < ) <.]   ",
"  + f r d '.b z r i l z < S q 2 p [ [.! '.p '.p p 2 &.~ : }.@   ",
"  |.v p Q >.r E p p p '.p ,.< < ,.%.x p E ,.1 p ,.E >.[.i o ^   ",
". -.' %.~ < >.,.1.2.E 1 3.,.4.5.&.6.7.>.8.9.0.a.b.p '.[.>.s (.  ",
"+ - ! %.c.i r d.e.f.,.x g.h.i.x j.k.l.'.m.x b.n.o.1.p.K >._ *   ",
"  6 ~.,., r r ,.q.2.| } %.r.s.'.1.t.u.E h.| v.w.[ x.y.U q 4 z.  ",
"  $ d q Y E l p A.B.W x C.D.E.} F.d.G.H.I.[ | J.5.K.x Q 3 S ]   ",
"  * L.X i 4 q E M.N.p >.O.p t.P.Q.E R.S.T.3.U.R.V.W.X.,.' Y.O   ",
"  O Z.`. +^.< q >.,.>.i E 1 [ '.i < 2 2 E 1 | | '.>.+.%.~..+$   ",
"    6 ++z s F F b 2 < < '.7.@+#+E E E E >.p &.1 2 z `.3 ~ 7     ",
"    O $+`.%+$.g F < ,.%.&.r.[ &+P.*+3.R.R.1 >.q ,.#.&.~.=+@     ",
"    -+6 Y 3 W R 2 i < &.%.;+&.T.>+,+>.2 '+q 2 2 f | 0 #.7       ",
"      7 )+M l ,.H q g >.[ !+~+{+j.]+^+/+q.: ,.Y E F U (+$       ",
"        ^ _+A g b.H :+l l i 2 i r >.E <+[+z #.| 3 ]...]         ",
"          ^ }+~.X W v f [.p i l b g >.|+Q `.%.G U 1+z.          ",
"            z.T Y A g W >., [.m , K 9 E x 3 M #.(+O             ",
"              O # 2+9 A 0 g r ,.E i b ) v , 3+^ .               ",
"                  ] @ C <.t U ].s o }.Y.j z.@                   ",
"                      (.O 7 4+@ O 4+7 @ -+                      ",
"                                                                "};
