/* XPM */
static char * D:\1euro\images\XAGz\bitcoin16_xpm[] = {
"16 16 107 2",
"  	c None",
". 	c #3E3E3E",
"+ 	c #404040",
"@ 	c #3B3B3B",
"# 	c #535353",
"$ 	c #A0A0A0",
"% 	c #D6D6D6",
"& 	c #F3F3F3",
"* 	c #F2F2F2",
"= 	c #D5D5D5",
"- 	c #9B9B9B",
"; 	c #515151",
"> 	c #7E7E7E",
", 	c #EDEDED",
"' 	c #D3D3D3",
") 	c #CCCCCC",
"! 	c #CDCDCD",
"~ 	c #D7D7D7",
"{ 	c #EAEAEA",
"] 	c #777777",
"^ 	c #EEEEEE",
"/ 	c #C6C6C6",
"( 	c #E7E7E7",
"_ 	c #E8E8E8",
": 	c #E6E6E6",
"< 	c #E4E4E4",
"[ 	c #C8C8C8",
"} 	c #ECECEC",
"| 	c #545454",
"1 	c #C5C5C5",
"2 	c #E3E3E3",
"3 	c #D9D9D9",
"4 	c #939393",
"5 	c #B0B0B0",
"6 	c #C9C9C9",
"7 	c #EFEFEF",
"8 	c #4F4F4F",
"9 	c #9F9F9F",
"0 	c #F0F0F0",
"a 	c #C7C7C7",
"b 	c #C0C0C0",
"c 	c #BABABA",
"d 	c #EBEBEB",
"e 	c #D8D8D8",
"f 	c #D2D2D2",
"g 	c #E0E0E0",
"h 	c #DCDCDC",
"i 	c #B9B9B9",
"j 	c #CFCFCF",
"k 	c #F1F1F1",
"l 	c #CBCBCB",
"m 	c #373737",
"n 	c #D4D4D4",
"o 	c #E6E5E5",
"p 	c #D3D2D2",
"q 	c #ECEBEB",
"r 	c #CFCDCD",
"s 	c #CECACA",
"t 	c #3C3C3C",
"u 	c #D1D1D1",
"v 	c #AEA5A5",
"w 	c #A09696",
"x 	c #B5ADAD",
"y 	c #C5BFBF",
"z 	c #F6F6F6",
"A 	c #C6C1C1",
"B 	c #B5AFAF",
"C 	c #E9E9E9",
"D 	c #DAD6D6",
"E 	c #E9E8E8",
"F 	c #E2E1E1",
"G 	c #A69B9B",
"H 	c #CBC7C7",
"I 	c #B0A7A7",
"J 	c #BBB4B4",
"K 	c #F5F5F5",
"L 	c #B8B0B0",
"M 	c #C5C2C2",
"N 	c #999999",
"O 	c #E2E2E2",
"P 	c #E1E0E0",
"Q 	c #D5D2D2",
"R 	c #CCC7C7",
"S 	c #E7E6E6",
"T 	c #D5D1D1",
"U 	c #E4E3E3",
"V 	c #CBC9C9",
"W 	c #8D8D8D",
"X 	c #505050",
"Y 	c #D2CECE",
"Z 	c #D7D3D3",
"` 	c #B4ACAC",
" .	c #4D4D4D",
"..	c #767676",
"+.	c #D6D3D3",
"@.	c #DCDADA",
"#.	c #C1BBBB",
"$.	c #6D6D6D",
"%.	c #747474",
"&.	c #DADADA",
"*.	c #D4D2D2",
"=.	c #4E4E4E",
"-.	c #919191",
";.	c #CACACA",
">.	c #8C8C8C",
",.	c #4C4C4C",
"'.	c #363636",
"            . + + @             ",
"        # $ % & * = - ;         ",
"      > , = ' ) ! ~ ~ { ]       ",
"    > ^ / ( _ : ( < : [ } ]     ",
"  | } 1 ( 2 3 4 5 6 7 ^ ) : 8   ",
"  9 = ( , 0 a 6 b c } 7 d e 4   ",
". f = 2 : g h i j ~ ^ k 7 3 l m ",
"+ 0 n d o d p { q r d s 0 e ( t ",
"+ ^ u { v } 0 w _ x y z A B : t ",
"@ u = C D E F G H I J K L M 6 m ",
"  N 3 : O : P Q R { S T U V W   ",
"  X ( a C 0 k Y Z ` } { ' O  .  ",
"    ..d ) : } +.@.#.: ' ( $.    ",
"      %.: &.e n u &.*.2 $.      ",
"        =.-.) C ( ;.>.,.        ",
"            '.@ @ m             "};
