/* XPM */
static char * D:\1euro\images\XAGz\bitcoin64_xpm[] = {
"64 64 321 2",
"  	c None",
". 	c #5A5A5A",
"+ 	c #595959",
"@ 	c #494949",
"# 	c #4C4C4C",
"$ 	c #484848",
"% 	c #454545",
"& 	c #464646",
"* 	c #5B5B5B",
"= 	c #5D5D5D",
"- 	c #5E5E5E",
"; 	c #3A3A3A",
"> 	c #343434",
", 	c #333333",
"' 	c #373737",
") 	c #3E3E3E",
"! 	c #434343",
"~ 	c #474747",
"{ 	c #414141",
"] 	c #3B3B3B",
"^ 	c #363636",
"/ 	c #323232",
"( 	c #353535",
"_ 	c #505050",
": 	c #616161",
"< 	c #3C3C3C",
"[ 	c #4E4E4E",
"} 	c #636363",
"| 	c #626262",
"1 	c #646464",
"2 	c #676767",
"3 	c #717171",
"4 	c #606060",
"5 	c #383838",
"6 	c #3D3D3D",
"7 	c #515151",
"8 	c #313131",
"9 	c #393939",
"0 	c #525252",
"a 	c #656565",
"b 	c #6E6E6E",
"c 	c #878787",
"d 	c #A4A4A4",
"e 	c #B3B3B3",
"f 	c #CACACA",
"g 	c #D2D2D2",
"h 	c #D0D0D0",
"i 	c #D1D1D1",
"j 	c #C8C8C8",
"k 	c #B2B2B2",
"l 	c #A1A1A1",
"m 	c #848484",
"n 	c #6D6D6D",
"o 	c #666666",
"p 	c #6C6C6C",
"q 	c #919191",
"r 	c #C0C0C0",
"s 	c #D4D4D4",
"t 	c #D7D7D7",
"u 	c #D9D9D9",
"v 	c #DADADA",
"w 	c #DBDBDB",
"x 	c #D8D8D8",
"y 	c #D6D6D6",
"z 	c #D3D3D3",
"A 	c #BABABA",
"B 	c #8F8F8F",
"C 	c #696969",
"D 	c #535353",
"E 	c #AAAAAA",
"F 	c #DDDDDD",
"G 	c #E0E0E0",
"H 	c #E3E3E3",
"I 	c #E5E5E5",
"J 	c #E8E8E8",
"K 	c #EAEAEA",
"L 	c #E9E9E9",
"M 	c #E7E7E7",
"N 	c #DFDFDF",
"O 	c #DCDCDC",
"P 	c #CFCFCF",
"Q 	c #6F6F6F",
"R 	c #404040",
"S 	c #4B4B4B",
"T 	c #6B6B6B",
"U 	c #6A6A6A",
"V 	c #ABABAB",
"W 	c #DEDEDE",
"X 	c #EDEDED",
"Y 	c #F1F1F1",
"Z 	c #F4F4F4",
"` 	c #F8F8F8",
" .	c #FAFAFA",
"..	c #FBFBFB",
"+.	c #F6F6F6",
"@.	c #EEEEEE",
"#.	c #E6E6E6",
"$.	c #E1E1E1",
"%.	c #D5D5D5",
"&.	c #A7A7A7",
"*.	c #686868",
"=.	c #555555",
"-.	c #3F3F3F",
";.	c #5C5C5C",
">.	c #8C8C8C",
",.	c #ECECEC",
"'.	c #F2F2F2",
").	c #F9F9F9",
"!.	c #FFFFFF",
"~.	c #BBBBBB",
"{.	c #BDBDBD",
"].	c #CBCBCB",
"^.	c #F7F7F7",
"/.	c #CDCDCD",
"(.	c #8A8A8A",
"_.	c #B5B5B5",
":.	c #FEFEFE",
"<.	c #A2A2A2",
"[.	c #7D7D7D",
"}.	c #838383",
"|.	c #8D8D8D",
"1.	c #AEAEAE",
"2.	c #B6B6B6",
"3.	c #BCBCBC",
"4.	c #ADADAD",
"5.	c #7C7C7C",
"6.	c #F3F3F3",
"7.	c #EBEBEB",
"8.	c #CECECE",
"9.	c #ACACAC",
"0.	c #565656",
"a.	c #707070",
"b.	c #FCFCFC",
"c.	c #777777",
"d.	c #949494",
"e.	c #F0F0F0",
"f.	c #E4E4E4",
"g.	c #9D9D9D",
"h.	c #C4C4C4",
"i.	c #C3C3C3",
"j.	c #424242",
"k.	c #7B7B7B",
"l.	c #737373",
"m.	c #BEBEBE",
"n.	c #7E7E7E",
"o.	c #C7C7C7",
"p.	c #F5F5F5",
"q.	c #FDFDFD",
"r.	c #727272",
"s.	c #B8B8B8",
"t.	c #E2E2E2",
"u.	c #A0A0A0",
"v.	c #EFEFEF",
"w.	c #747474",
"x.	c #4A4A4A",
"y.	c #C1C1C1",
"z.	c #7A7A7A",
"A.	c #B4B4B4",
"B.	c #A5A5A5",
"C.	c #B1B1B1",
"D.	c #808080",
"E.	c #CCCCCC",
"F.	c #C9C9C9",
"G.	c #A3A3A3",
"H.	c #858585",
"I.	c #868686",
"J.	c #A8A8A8",
"K.	c #9A9A9A",
"L.	c #9B9B9B",
"M.	c #767676",
"N.	c #787878",
"O.	c #B7B7B7",
"P.	c #A9A9A9",
"Q.	c #575757",
"R.	c #757575",
"S.	c #9C9C9C",
"T.	c #4D4D4D",
"U.	c #C2C2C2",
"V.	c #B0B0B0",
"W.	c #AFAFAF",
"X.	c #8E8E8E",
"Y.	c #888888",
"Z.	c #C6C6C6",
"`.	c #999999",
" +	c #828282",
".+	c #959595",
"++	c #909090",
"@+	c #979797",
"#+	c #B9B9B9",
"$+	c #ADA4A4",
"%+	c #CCC8C8",
"&+	c #BFB8B8",
"*+	c #A89F9F",
"=+	c #AFA6A6",
"-+	c #ACA3A3",
";+	c #C1BBBB",
">+	c #ABA2A2",
",+	c #D5D1D1",
"'+	c #D3D0D0",
")+	c #A49999",
"!+	c #978B8B",
"~+	c #A9A0A0",
"{+	c #E0DEDE",
"]+	c #BFBFBF",
"^+	c #988B8B",
"/+	c #C3BDBD",
"(+	c #EEEDED",
"_+	c #B0A8A8",
":+	c #CDC8C8",
"<+	c #DCD9D9",
"[+	c #9D9292",
"}+	c #D2CECE",
"|+	c #B4ACAC",
"1+	c #D6D3D3",
"2+	c #D7D3D3",
"3+	c #A49A9A",
"4+	c #F0EFEF",
"5+	c #5F5F5F",
"6+	c #988C8C",
"7+	c #D9D6D6",
"8+	c #B6AEAE",
"9+	c #D3CFCF",
"0+	c #EDECEC",
"a+	c #B1AAAA",
"b+	c #B2A9A9",
"c+	c #E1DEDE",
"d+	c #C7C1C1",
"e+	c #C8C2C2",
"f+	c #C4BEBE",
"g+	c #C2BCBC",
"h+	c #545454",
"i+	c #CBC7C7",
"j+	c #C0BABA",
"k+	c #ACA2A2",
"l+	c #998E8E",
"m+	c #B0A7A7",
"n+	c #AEA5A5",
"o+	c #968B8B",
"p+	c #E5E3E3",
"q+	c #978C8C",
"r+	c #E9E7E7",
"s+	c #ABA1A1",
"t+	c #BEB8B8",
"u+	c #C5C5C5",
"v+	c #CEC9C9",
"w+	c #B8B0B0",
"x+	c #A29797",
"y+	c #DCDADA",
"z+	c #DAD7D7",
"A+	c #998D8D",
"B+	c #A19797",
"C+	c #444444",
"D+	c #EBEAEA",
"E+	c #A89E9E",
"F+	c #CECACA",
"G+	c #CAC5C5",
"H+	c #A79E9E",
"I+	c #AAA0A0",
"J+	c #E3E1E1",
"K+	c #CBC6C6",
"L+	c #DDDBDB",
"M+	c #9D9191",
"N+	c #9C9191",
"O+	c #4F4F4F",
"P+	c #A49B9B",
"Q+	c #9A8E8E",
"R+	c #A59C9C",
"S+	c #A59B9B",
"T+	c #BCB6B6",
"U+	c #A39999",
"V+	c #A29898",
"W+	c #C6C0C0",
"X+	c #A39898",
"Y+	c #E7E6E6",
"Z+	c #9F9F9F",
"`+	c #8B8B8B",
" @	c #AEA4A4",
".@	c #B5ACAC",
"+@	c #9E9393",
"@@	c #BEB7B7",
"#@	c #CFCACA",
"$@	c #AAA1A1",
"%@	c #BAB3B3",
"&@	c #969696",
"*@	c #989898",
"=@	c #DDDADA",
"-@	c #C9C4C4",
";@	c #C5BFBF",
">@	c #DAD8D8",
",@	c #C1BABA",
"'@	c #C0B9B9",
")@	c #E6E4E4",
"!@	c #CAC6C6",
"~@	c #929292",
"{@	c #7F7F7F",
"]@	c #898989",
"^@	c #E4E3E3",
"/@	c #9B9090",
"(@	c #9E9E9E",
"_@	c #BFB9B9",
":@	c #E4E2E2",
"<@	c #E2E0E0",
"[@	c #E8E7E7",
"}@	c #9B8F8F",
"|@	c #C4BDBD",
"1@	c #9F9494",
"2@	c #C5BEBE",
"3@	c #C7C2C2",
"4@	c #D4CFCF",
"5@	c #ACA1A1",
"6@	c #DCD8D8",
"7@	c #B1A8A8",
"8@	c #A69C9C",
"9@	c #B5ADAD",
"0@	c #C0BBBB",
"a@	c #D4D0D0",
"b@	c #D3D1D1",
"c@	c #585858",
"d@	c #818181",
"e@	c #797979",
"f@	c #939393",
"                                                                                                                                ",
"                                                    . + @ # $ % & @ # # * =                                                     ",
"                                            - # ; > , ' ) ! ~ $ @ % { ] ^ / ( ) _ :                                             ",
"                                        # ' / < [ - } | 1 : 2 3 3 2 4 } : : + ~ 5 / 6 7                                         ",
"                                    $ 8 9 0 a | b c d e f g h i i i i j k l m n : - ~ ( ( [                                     ",
"                                $ 8 ) * o p q r i h g s t u v w v v x y z h h h A B C | 7 ^ ( D                                 ",
"                            . ^ 9 + 2 3 E g h s u F G H I J J K L M M I H N O t z P P d Q | # , R 4                             ",
"                          @ 8 S T U V z i x W H J X Y Z ` `  ..... .` +.Z @.K #.$.O %.P i &.*.: 6 > =.                          ",
"                        -.^ ;.o >.h h u N #.,.'.)...!.!.Z x f ~.{.].v ^.!.!...+.Y K H F y /.].(.| # 8 #                         ",
"                      ] ) a C _.i t W M @.+...:.M <.[.}.|.1.2.3.3.A 4.|.m 5.&.,.:. .6.7.H O s 8.9.*.0., %                       ",
"                    ' { U a.].i v H 7.+.b.b.~.c.d.t e.L I f.f.I #.#.#.M e.).t g.}.h.!...Y J N t /.i.n = ( !                     ",
"                  ] j.U k.8.z F M e. .b.{.l.{.^.#.I f.f.H $.f.$.$.H H H M M #.K e.m.n.o.!.^.@.H v h j l.= > %                   ",
"                -.-.U k.i %.G L p.q.K r.s.` M #.#.M L J t.g <.4.I V u.%.H I H f.I #.e.s.5.6...v.I w i ].w.= / x.                ",
"              $ ' 2 a./.s N 7.+.q.y.z.).K J H I #.K L A.<.n U u M v U n B.C.H f.H t.H I v.D.E.:.Y #.v h j p 0./ D               ",
"            . / = *.F.z N L ` :.<.G.Y #.f.G H H I L w B.p b H.J J L I.b b J.x I t.t.H H H @.K.9.!.'.I w 8.i.o @ ( }             ",
"            ( # a A.h F J +.b.L.r J $.H G N t.f.J J s b b M.{.M J K m.N.b 3 x M L J #.I #.#.J 3.&.!.v.f.x E.E 4 ; %             ",
"          ~ ; p (.h v #.Z :.d m.H H $.t.G t.f.f.f.y b b w.A.J._.K O.P.e M.b r.u 7.K 7.L J J J L ~.e q.@.$.s E.m ;./ Q.          ",
"          , * *.8.y H Y b.h.l I H f.H f.H I H f.H $.B r.x L 4.J.J.P.V I u R.B K @.@.X v.@.L M #.J S.t ).K W h o.a % <           ",
"        $ -.*.&.h W 7. .,.n.M $.f.I M #.J f.M f.$.t.f.8.M J #.J.P.J.f.K K z X X X e.'.Z Y Y 7.M f.X }. .6.#.u f l = , =.        ",
"        / - b z t I p.:.N.7.t.$.f.J J J M L I H f.H J #.L L k P.J.P.C.X v.Y Y e.'.@.e.6.'.6.v.K #.M X (.!.@.$.g E.T % 6         ",
"      T.< *.&.h N X ..U._.H t.t.J ,.,.,.,.X 7.X 7.K 7.L L C.P.J.8.P.P.V.X v.Z @.Y X X @.e.'.Y X 7.#.I 2.s ^.#.u ].L.= / *       ",
"      ' =.U h t I p.q.R.@.$.H I 7.,.@.@.Y Z p.p.6.e.Y 7.C.P.J.t I w J.P.W.J X X @.K ,.@.e.e.@.X K J L X c !.v.N g F.} < ~       ",
"    4 , 2 X.8.F 7...y.A.f.I I J 7.X @.Y '.p.@.Y v.v.,.W.P.J.%.M I f.g J.P.W.L 7.X e.,.,.X X Y Y e.,.M f.O.s +.I t ].H.0 '       ",
"    $ -.1 A g t.Y !.5.@.I I $.L J 7.K e.,.J M M #.t.W.J.P.8.M L f.f.$./.P.P.1.I @.X ,.@.v.'.e.'.+.6.X 7.Z Y.!.7.F /.4.* , +     ",
"    ; 0 p P x #.^.,.d.#.#.f.#.M J K K J I #.t.$.H v J.J.Z.X 7.@.K @.L J F.P.J.f.e.e.v.@.'.'.p.+.Z +.Y @.7.`.).v.$.g ].4 5 S     ",
"    > 4  +h w K b.E %.t.H $.f.#.#.H M J $.t.$.N H t.v m.7.@.,.X ,.,.X v.X U.G v.Y v.@.@.Y 6.Y +.p.Z e.K K z {.p.I %.f z.~ 6     ",
"  : , *.L.P W v.!.}.6.$.H G H H #.L M M H f.t.t.I J J ,.K ,.7.J 7.'.e.6.Y '.6.'.v.@.v.v.v.v.'.v.6.@.,.L J Z q b.J u f .+0 '     ",
"  =.9 1 W.z t.Y !.(.#.t.$.I M 7.J L M 7.#.L K 7.@.v.,.7.7.J L 7.X Y '.Y Z '.p.Y v.e.v.e.v.X @.v.,.v.7.J L K ++!.,.O /.g.* > o   ",
"  x.{ o U.s H p.)..+#.H M #.K ,.X @.X e.e.X v.v.v.@.@.X 7.M M 7.7.e.Z '.+.p.'.@.v.X v.v.e.v.e.X L @.X M J H @+!.@.W h A 0./ 0.  ",
"  ! & | P y I ` O #+,.J K K X @.$+%+e.v.v.v.X &+*+7.Y ,.=+-+X @.X ;+>+,+6.Y 6.,.'+)+!+!+~+{+e.e.Y e.'.,.K L 1.@.e.N h ]++ > 4   ",
"  x.x.} h x #.).i U.L M 7.,.X =+^+/+v.e.,.@.v.(+!+_+e.:+!+<+'.Z e.!+[+-+6.X ,.}+!+|+1+2+3+!+4+^.+.p.6.@.X 7.{.t.Y $.g y.5+^ *   ",
"  & # U P x M ` o.U.J K K 7.!+*+6+;+,.J 7.@.e.Y }+!+7+!+8++.).^.9+^+7+!+0+e.X 6+a+7.X +.Z b+c+0+d+e+f+g+1+,.U.%.Y $.z Z.a ^ h+  ",
"  ~ S C P x M ` j U.I M L J i+,.!+j+L J L @.'.Z Z k+!+l+6.^.6.).m+n+v.o+d+X p+q+9+,.Y ).` b.).r+s+>+3+!+t+,.h.y Y $.z u+a ^ 0.  ",
"  x.$ : P t #.).g 3.I f.M 7.,.@.6+j+L 7.7.p.Z +.Z d+6+$+e.v.e.'.!+v+X w+x+v.y+6+z+v.6.6+6+6+f+` +.7.A+B+K ,.A I Y G i y.5+> *   ",
"  C+! | 8.t f.+.G e #.#.#.X 7.@.6+g+K X @.^.+.+.D+!+E+q+F+v.@.G+6+H+I+x+q+J+M ^+K+v.Z L+p+6+d+p.'.M+N+f.M L k v.e.W h m.0., :   ",
"  O+6 o {.z H Z q.|.f.H H K @.Y 6+f+Y Z ` ).` p.P+Q+'.$+!+@.e.R+S+g+j+g+!+T+,.U+V+Y +.p.Z !+W+^.X+l+Y+K L K Z+!.X O P O.=.> Q.  ",
"  h+' | W.i G Y !.`+I H $.M e.e.6+d+` ^.+.).^.G+^+z+Z Y !+ @Z !+%+Y 7.@..@l+L {+!++@/+@@!+!+#@f+!+3+I+$@%@X &@!.7.v ].L.Q.> *.  ",
"  1 / a *@P F X !.(.@.G H J 7.'./+=@+.+.` +.'.&+-@e.6.6.<+;@,+f+@.Y Y @.>@,@f.,.J &+$+n+'@)@^.=@d+W+f+;+!@Z &@ .M t F.~@[ 9     ",
"    ( * {@h v J ).C.z t.#.L K Y Y '.6.Z e.Y v.,.7.,.@.Y Z p.6.+.Y Y e.X Y X X v.,.X e.X p.p.^.p.Z 6.X L K g u+6.H s F.M.{ C+    ",
"    -.x.T /.%.f.p.'.*@M I J 7.X v.e.'.e.e.X L 7.,.X e.e.Y '.Y p.,.v.,.K v.,.@.@.7.7.v.e.Z ^.p.6.'.Y K M L L.b.X N h o.= ( O+    ",
"    [ 5 | A.i G @.!.Y.6.L L J K @.@.@.Y ,.X K M 7.7.6.@.Y Y X Y 7.M X J K 7.I @.K X e.Y p.p.p.'.v.v.,.,.+.~@q.J v ].&.=., =     ",
"      8 : ]@E.v M  .8.3.L L f.I L M K ,.K K M L ,.v.Y @.^@D+@.v.K J 7.J K J L X ,.v.'.v.p.+.` Z Y ,.L K e t.'.H %.j  +~ <       ",
"      < @ 2 E.s t.Y !.H.e.I G t.G J 7.K ,.L 7.7.7.v.z+q+/@!+8+X @.X X 7.X X ,.@.,.,.v.Y Z 6.Z '.,.K L ).X.!.7.F P h.= ( _       ",
"      =.( 1 (@/.w K ).h e $.N F N t.L L K K J v.e.v.!+}+e.@.!+_@v.{+:@<@[@@.K X K X e.@.e.'.v.X #.7.7.O.H '.f.y j .+D > -       ",
"        ( 0 p 8.s t.e.!.H.I F O W G L K ,.e.e.+.e.G+}@'.'.e.|@1@e.q+N+^+f+@.v.@.Y v.'.X Y 7.L L I M Y @+q.K F P F.} ] ~         ",
"        O+^ } Z+/.v #.p.^.{@f.W G H K K 7.v.Y Z 6.2@B+e.6.Y /+6+Y Z 3@[+X f+Q+!+g+e.Y v.7.J #.I #.Y B q.v.t.%.o.`.D , ;.        ",
"          ( # o j i W ,. .z @+#.f.L L 7.X @.Y 6.Z 4@o+'.e.Y W+5@p.6@q+e.,.,.J !+X ,.@.J 7.K #.M L J.H Z I v /.U.5+5 ~           ",
"          7 , | m /.y t.v.q.A.~.K f.I I L #.v.6.'.6.!+7@Z z+!+'+Y q+7.@.X K !+Y+M f.H f.M #.#.7.u+Z.` L W i f {@T.^ 5+          ",
"            R 6 } J.E.u H e.!.1.~.M t.G f.#.X @.p.p.0+=+!+A+1+6.f+!+6+6+8@9@3+|+0@f.H G $.M K Z.3...7.G g j u.=./ 7             ",
"              > S o y.8.w I Y !.#+(@#.G N I L K 7.X '.v.e.'.@.e.e.e.p.e.+.L+'+a@b@I I H M Y J.Z...,.$.%.f #+* 9 {               ",
"              h+8 =.C Z.h w I v.q.w ]@#.N f.I I L I #.7.K X L K ,.K @.@.Y v.,.7.,.K K M Y X.H ` ,.$.y ].r } j.; -               ",
"                S , ;.r.].P v H @.)...X.A.@.H I H H I M #.K #.#.#.#.J J J L J ,.@.v. .#+&@:.Z K G t E.u+*.x.> +                 ",
"                  ~ > ;.a.o.P x t.L Z !.t (.s.'.H H H f.I I H t.N G t.t.$.#.J 7.).A B t.:.v.M F z ].y.*.x./ D                   ",
"                    % , * *.y.].%.F #.@.^.!.t |.g.h 6.L H H t.N G W N W H @.z Z+~@G !.6.K H w g j #+| @ / D                     ",
"                      ~ 8 0 1 &.E.h u $.M e.+.!.).{.~@d.`.E C.e C.4.V *@&@`.U...q.Z ,.f.W y /.f l * { > h+                      ",
"                        [ 8 & - }.Z.].z u N #.,.Y ^.q.!.!.v.#.v w #.e.!.!...Z v.L H W t P j U.{@=.5 ] .                         ",
"                          =.5 ' c@} Z+E.E.z x W t.#.L X v.Y 6.Z 6.'.e.@.,.J f.G w y i F.f K.- S / C+-                           ",
"                              ~ / -.+ C K.F.].8.g t v F N $.t.t.t.t.G W O x %.i /.f Z..+: O+' ' D                               ",
"                                c@R 8 { + 4 H.4.].E.E.8.h g g z z g g P /.].E.o.J.d@* O+' , x.4                                 ",
"                                    + R , 5 # Q.- e@.+(@A ]+i.Z.Z.U.]+s.g.f@R.* 7 ! > ^ x.-                                     ",
"                                        ;.T.; , ^ { # =.h+h+;.: : * 0 0 0 $ < , > { h+4                                         ",
"                                              = O+! ; > , / , > , / , , ' 6 x.D :                                               ",
"                                                      *.c@} - + + 5+1 c@T                                                       ",
"                                                                                                                                "};
